<mxfile host="app.diagrams.net" modified="2023-04-17T14:16:38.440Z" agent="Mozilla/5.0 (Windows NT 10.0; Win64; x64) AppleWebKit/537.36 (KHTML, like Gecko) Chrome/112.0.0.0 Safari/537.36" version="21.1.8" etag="fmiX4hcf6NSiRAJpNn9i" type="github">
  <diagram name="Страница 1" id="NWaeuI1tvhfAlDZzo5QO">
    <mxGraphModel>
      <root>
        <mxCell id="0" />
        <mxCell id="1" parent="0" />
      </root>
    </mxGraphModel>
  </diagram>
</mxfile>
